<?xml version="1.0" encoding="UTF-8"?>
<!-- Generator: Adobe Illustrator 24.3.0, SVG Export Plug-In . SVG Version: 6.00 Build 0)  -->
<svg version="1.1" id="svg2" xmlns:cc="http://creativecommons.org/ns#" xmlns:dc="http://purl.org/dc/elements/1.1/" xmlns:rdf="http://www.w3.org/1999/02/22-rdf-syntax-ns#" xmlns:svg="http://www.w3.org/2000/svg" xmlns="http://www.w3.org/2000/svg" xmlns:xlink="http://www.w3.org/1999/xlink" x="0px" y="0px" viewBox="0 0 135 155" style="enable-background:new 0 0 135 155;" xml:space="preserve">
<style type="text/css">
	.st0{fill:#EE2630;}
	.st1{fill:#F9A612;}
</style>
<g id="g12" transform="scale(0.1)">
	<path id="path14" class="st0" d="M675.6,15.5l662.8,1148.9H12.8L675.6,15.5z"/>
	<path id="path16" class="st1" d="M576.9,813.1h-45c-6.3,0-12.3,5.1-13.4,11.4l-37.8,207.2c-1.1,6.3,3.1,11.4,9.4,11.4H535   c6.3,0,12.3-5.1,13.5-11.4l37.8-207.2C587.4,818.2,583.2,813.1,576.9,813.1"/>
	<path id="path18" class="st1" d="M603.9,727.6l7.1-39.2c1.1-6.3-3.1-11.3-9.3-11.4l-45.1,0c-6.3,0-12.3,5.1-13.4,11.3l-7.1,39.2   c-1.1,6.3,3.1,11.4,9.4,11.4h45.1C596.7,739,602.8,733.9,603.9,727.6"/>
	<path id="path20" class="st1" d="M1090.8,1032.2c3.1-7.7,5.3-28.7,5.3-28.7c0.5-3.1,1.2-11.3-6.4-13.6c-7.6-2.3-25.6,0.5-25.6-11.3   c0-4.1,14.1-73.5,15.6-95.7c1.5-22.2,0.1-51.5-36.3-65.9c-13.2-5.2-131.6-3.9-131.6-3.9c-7-0.1-13.4,4.4-14.2,10l-5.4,25   c-0.9,5.6,4.2,10.2,11.2,10.3c0,0,50.6,0,81.7,0c29.1,0,39.7,5.6,40.3,10.6c0.5,5,1.3,33.5-11,33c-10.8-0.4-158-29.5-158,67.6   c0,16.9-28.5,23.2-36,11.8c-7.5-11.4-45.8-49.7-46.1-56.5c-0.4-6.8,63.3-39.7,76.9-93.8c1.3-5,2.1-18-7.8-18c-7.2,0-33.5,0-38.9,0   c-5.2-0.1-12,1.2-18,13.6c-26.3,60.8-94.9,74.7-90,52.1c1.6-7.4,79.9-440.1,79.9-440.1c1.1-6.3-3.1-11.4-9.4-11.4h-45.1   c-6.3,0-12.3,5.1-13.4,11.4l-108,593c-1.2,6.3,3,11.4,9.3,11.4h45.1c6.3,0,12.3-5.1,13.4-11.4l12.7-67l0,0.1   c3.8-9.6,9.3-13.9,21.6-13.9c44.5,0,67.2,95.5,112.7,96.2c27.4,0.5,60-20.2,66.2-20.4c13.1-0.4,20.4,20.4,64.3,20.4   c38.9,0,67.1-14.2,76.3-14.2c8,0,24.9,8.6,33.4,10.9C1076.1,1049.3,1087.8,1040,1090.8,1032.2L1090.8,1032.2z M960.8,1000   c-33.6,1.6-51.9-14.5-51.9-30.3c0-21.6,33.2-28.5,60.1-27.6c26.9,0.9,45.5,6.8,44.8,27.9C1013.2,985.8,989.2,998.6,960.8,1000"/>
	<path id="path22" class="st1" d="M253.9,1047.8c3.3-1.6,5.4-3.6,7.2-4.3c1.5-0.5,4.2-0.3,7.9,0.4l0.5,0.1   c31.2,8.8,144.3,39,172.1-92.6c0,0,76.8-420.9,76.9-421.8c0.6-4.9,9.4-58.4,83.8-33.4c25,8.4,27.3-4.1,27.9-6.3l11.4-49.2   c0.4-14-10.8-10.8-32.3-14.9c-16.5-3.1-21.3,5.7-25.1,7.5c-3.8,1.7-16.9-1.4-36.4-2.4c-11.3-0.5-79.3,8-93.1,74.5l-74.8,404.3   c-3.3,12.1-2.2,126.4-133.4,61.9c-22.3-11-30.8-5.2-32.8,6.4c-1.4,8.2-7.6,49.6-8.7,58.1c-0.4,3.5,2.2,8.9,8.6,9.9   c6.9,1.1,17.9,2.7,23.3,3.6c7.7,1.1,12.5,0.2,16.1-1.6L253.9,1047.8"/>
	<path id="path24" class="st0" d="M1238.2,750.7h13.5c6.4,0,10.8-1,13.2-2.9c2.3-1.9,3.5-4.5,3.5-7.6c0-2-0.6-3.8-1.7-5.5   c-1.1-1.6-2.7-2.8-4.7-3.6c-2-0.8-5.7-1.2-11.1-1.2h-12.6V750.7z M1227.1,789.4v-68.8h23.6c8.1,0,13.9,0.6,17.5,1.9   c3.6,1.3,6.5,3.5,8.6,6.6c2.1,3.2,3.2,6.5,3.2,10.1c0,5-1.8,9.4-5.4,13.1c-3.6,3.7-8.3,5.8-14.3,6.3c2.4,1,4.4,2.2,5.8,3.6   c2.8,2.7,6.2,7.2,10.2,13.6l8.4,13.5h-13.6l-6.1-10.8c-4.8-8.5-8.7-13.9-11.6-16c-2-1.6-5-2.4-8.9-2.4h-6.5v29.2H1227.1z    M1255.1,700.7c-9,0-17.7,2.3-26.2,6.9c-8.5,4.6-15.1,11.2-19.9,19.7c-4.8,8.6-7.2,17.4-7.2,26.7c0,9.2,2.4,18,7.1,26.5   c4.7,8.4,11.3,15,19.8,19.7c8.5,4.7,17.3,7.1,26.5,7.1c9.2,0,18-2.3,26.5-7.1c8.5-4.7,15-11.3,19.7-19.7c4.7-8.4,7-17.3,7-26.5   c0-9.3-2.4-18.2-7.1-26.7c-4.8-8.6-11.4-15.1-19.9-19.7C1272.7,703,1264,700.7,1255.1,700.7L1255.1,700.7z M1255.1,690.1   c10.7,0,21.2,2.7,31.4,8.3c10.2,5.5,18.2,13.4,23.9,23.6c5.7,10.2,8.6,20.9,8.6,32c0,11-2.8,21.6-8.4,31.8   c-5.6,10.2-13.5,18-23.6,23.6c-10.1,5.6-20.7,8.4-31.8,8.4c-11.1,0-21.7-2.8-31.8-8.4c-10.1-5.6-18-13.5-23.7-23.6   c-5.6-10.2-8.5-20.7-8.5-31.8c0-11.1,2.9-21.8,8.6-32c5.8-10.3,13.7-18.1,23.9-23.6C1233.9,692.9,1244.4,690.1,1255.1,690.1"/>
	<path id="path26" class="st0" d="M64.9,1534.9H12.1v-123.7H61c25.8,0,35.3,10.4,35.3,27.1v12.6c0,8.9-3.9,15.2-13.8,19.5   c10.2,2.4,18.2,11.3,18.2,22.9v12C100.7,1522.8,89.6,1534.9,64.9,1534.9 M68.4,1442.4c0-5.4-3.4-8.7-11.2-8.7H40v28.2h17.3   c7.4,0,11.2-3.7,11.2-8.7V1442.4z M72.9,1494c0-6.9-4.2-10.4-11.7-10.4H40v28.8h17.3c8.7,0,15.6-1.8,15.6-10.8V1494"/>
	<path id="path28" class="st0" d="M210.7,1411.1v87.7c0,18.8-11.7,37.9-46.6,37.9c-35,0-46.7-19.1-46.7-37.9v-87.7h27.9v85.1   c0,10,4.8,15.7,18.8,15.7c13.9,0,18.7-5.7,18.7-15.7v-85.1H210.7"/>
	<path id="path30" class="st0" d="M234.9,1411.1h27.8v123.7h-27.8V1411.1"/>
	<path id="path32" class="st0" d="M287.9,1534.9v-123.7h27.9v99.1h49v24.7H287.9"/>
	<path id="path34" class="st0" d="M428.5,1534.9h-47.9v-123.7h47.9c30.5,0,41.8,15.4,41.8,32.1v59.5   C470.3,1519.3,459,1534.9,428.5,1534.9 M442.4,1450.9c0-9.7-3.3-15-17.2-15h-16.7v74.3h16.7c13.9,0,17.2-5.4,17.2-15.1V1450.9"/>
	<path id="path36" class="st0" d="M492.6,1411.1h27.8v123.7h-27.8V1411.1"/>
	<path id="path38" class="st0" d="M572.1,1453.5v81.4h-26.5v-123.7h34.2l40.7,85.3v-85.3H647v123.7h-34.4L572.1,1453.5"/>
	<path id="path40" class="st0" d="M713.7,1536.7c-30.1,0-45.3-15.4-45.3-37.9v-51.6c0-22.9,15.2-37.9,45.3-37.9   c14.3,0,29,1.9,39.6,3.9l-3.4,24.3c-10.7-1.7-27.3-3-36.2-3c-13.9,0-17.4,7.2-17.4,16.9v42.5c0,9.7,3.5,17.7,17.4,17.7   c5.6,0,9.3-0.2,16.5-1.1v-37.9h26.2v58.2C742.9,1534.7,728.1,1536.7,713.7,1536.7"/>
	<path id="path42" class="st0" d="M869.7,1435.8v99h-27.9v-99h-33.2v-24.7h94.4v24.7H869.7"/>
	<path id="path44" class="st0" d="M961.5,1496.4h-16.3v38.5h-27.9v-123.7h51.4c30.1,0,41.3,11.9,41.3,35.1v15.3   c0,15.4-5.5,25.8-18,31.1l29.9,42.3h-33.1L961.5,1496.4z M982.1,1448.9c0-9.3-3.5-13-14.9-13h-22.1v36.4h22.1   c11.9,0,14.9-4.3,14.9-13.6V1448.9"/>
	<path id="path46" class="st0" d="M1129.1,1411.1v87.7c0,18.8-11.7,37.9-46.6,37.9c-35,0-46.7-19.1-46.7-37.9v-87.7h27.9v85.1   c0,10,4.8,15.7,18.8,15.7c13.9,0,18.7-5.7,18.7-15.7v-85.1H1129.1"/>
	<path id="path48" class="st0" d="M1188.6,1536.7c-14.3,0-29.4-3.2-39.9-8l4.6-21.6c11.3,3.5,22.8,6,35.7,6   c14.3,0,17.1-2.8,17.1-13.2c0-11.2-0.5-12.5-20.8-16.9c-29.9-6.5-34.4-12.4-34.4-39.2c0-24.7,8.8-34.5,42.8-34.5   c10.7,0,23.8,1.1,37.5,4.1l-2.8,23.4c-14.2-2.4-23.2-3.5-34.4-3.5c-12.5,0-15.3,2.2-15.3,11.3c0,11.9,0.5,12.1,20.1,16.7   c33.5,8,35.1,14.5,35.1,38.8C1233.9,1524.6,1225.9,1536.7,1188.6,1536.7"/>
	<path id="path50" class="st0" d="M1304.7,1435.8v99h-27.9v-99h-33.3v-24.7h94.4v24.7H1304.7"/>
</g>
</svg>